<svg xmlns="http://www.w3.org/2000/svg" width="86.4" height="76.8" viewBox="0 0 67.2 58.4"><path fill="#f64578" stroke="#354c5a" stroke-miterlimit="10" stroke-width="2.49" d="M61.4 6.3a16.5 16.5 0 0 0-23-.2l-4.7 4.7L29 6.1a16.1 16.1 0 0 0-22.9-.2 16.1 16.1 0 0 0-.2 22.9l4.7 4.8 22.7 23.1 23.1-22.8 4.8-4.7a16.3 16.3 0 0 0 .2-22.9z"/><path fill="#f2f2f2" stroke="#354c5a" stroke-miterlimit="10" d="M48.1 42.1c-2.2-11-4-18-4-18 3.4-5.6-2.7-5.2-2.7-5.2-6.5-8.5-20-1.6-20-1.6-4 1.5-2.1 4.8-2.1 4.8-1.2 4.3.7 8.8 1 11.8a50 50 0 0 1-1 8.5l14 14.3z"/><path fill="#354c5a" d="M29.2 27.1a.9.9 0 0 0-1.2 0l-.2.2-.2-.2a.9.9 0 0 0-1.2 0 .9.9 0 0 0 0 1.2l.2.2 1.2 1.2 1.1-1.2.3-.2a.9.9 0 0 0 0-1.2z"/><path fill="none" stroke="#354c5a" stroke-miterlimit="10" d="M21.7 29.3s-.1 3 2 2.5l3.9-1s3.6 2.8 5.4 1.6a5.5 5.5 0 0 0 2.2-2.3"/><circle cx="34.3" cy="23.5" r="1.1" fill="#354c5a"/><circle cx="23.7" cy="23.1" r="1" fill="#354c5a"/></svg>