<svg xmlns="http://www.w3.org/2000/svg"><symbol id="facebook" viewBox="0 0 90 90"><style>.st0{fill:#f3f1f2}</style><path id="Facebook__x28_alt_x29_" d="M90 15c0-7.9-7.1-15-15-15H15C7.1 0 0 7.1 0 15v60c0 7.9 7.1 15 15 15h30V56H34V41h11v-5.8C45 25.1 52.6 16 61.9 16H74v15H61.9c-1.3 0-2.9 1.6-2.9 4v6h15v15H59v34h16c7.9 0 15-7.1 15-15V15z" class="st0"/></symbol><symbol id="instagram" viewBox="0 0 512 512"><style>.st0{fill:#f3f1f2}</style><path d="M352 0H160C71.6 0 0 71.6 0 160v192c0 88.4 71.6 160 160 160h192c88.4 0 160-71.6 160-160V160C512 71.6 440.4 0 352 0zm112 352c0 61.8-50.2 112-112 112H160c-61.8 0-112-50.2-112-112V160C48 98.2 98.2 48 160 48h192c61.8 0 112 50.2 112 112v192z" class="st0"/><path d="M256 128c-70.7 0-128 57.3-128 128s57.3 128 128 128 128-57.3 128-128-57.3-128-128-128zm0 208c-44.1 0-80-35.9-80-80s35.9-80 80-80 80 35.9 80 80-35.9 80-80 80z" class="st0"/><circle cx="393.6" cy="118.4" r="17.1" class="st0"/></symbol><symbol id="twitter" viewBox="0 0 612 612"><style>.st0{fill:#f3f1f2}</style><path d="M612 116.3c-22.5 10-46.7 16.7-72.1 19.8 25.9-15.5 45.8-40.2 55.2-69.4-24.3 14.4-51.2 24.8-79.8 30.5-22.9-24.4-55.5-39.7-91.6-39.7-69.3 0-125.6 56.2-125.6 125.5 0 9.8 1.1 19.4 3.3 28.6-104.3-5.2-196.8-55.2-258.8-131.2-10.8 18.5-17 40.1-17 63.1 0 43.6 22.2 82 55.8 104.5-20.6-.7-39.9-6.3-56.9-15.8v1.6c0 60.8 43.3 111.6 100.7 123.1-10.5 2.8-21.6 4.4-33.1 4.4-8.1 0-15.9-.8-23.6-2.3 16 49.9 62.3 86.2 117.3 87.2-42.9 33.7-97.1 53.7-155.9 53.7-10.1 0-20.1-.6-29.9-1.7 55.6 35.7 121.5 56.5 192.4 56.5 230.9 0 357.2-191.3 357.2-357.2l-.4-16.3c24.7-17.7 46-39.8 62.8-64.9z" class="st0"/></symbol></svg>